<svg width="48" height="48" viewBox="0 0 48 48" fill="none" xmlns="http://www.w3.org/2000/svg">
<path d="M15.674 2.15625H2.15625V15.674H15.674V2.15625Z" fill="#AACC00"/>
<path fill-rule="evenodd" clip-rule="evenodd" d="M44.1789 12.687L34.6204 3.12847L27.4269 10.322L36.9854 19.8805L44.1789 12.687ZM36.9854 18.5547L28.7527 10.322L34.6204 4.45429L42.8531 12.687L36.9854 18.5547Z" fill="#AACC00"/>
<path fill-rule="evenodd" clip-rule="evenodd" d="M36.0492 20.8166L26.4907 11.2581L18.3969 19.352L27.9554 28.9105L36.0492 20.8166ZM27.9554 27.5847L19.7227 19.352L26.4907 12.584L34.7234 20.8166L27.9554 27.5847Z" fill="#AACC00"/>
<path fill-rule="evenodd" clip-rule="evenodd" d="M8.91513 37.3143C7.48293 37.3143 6.3219 38.4754 6.3219 39.9076C6.3219 41.3398 7.48293 42.5008 8.91513 42.5008C10.3473 42.5008 11.5084 41.3398 11.5084 39.9076C11.5084 38.4754 10.3473 37.3143 8.91513 37.3143ZM7.2594 39.9076C7.2594 38.9931 8.0007 38.2518 8.91513 38.2518C9.82957 38.2518 10.5709 38.9931 10.5709 39.9076C10.5709 40.822 9.82957 41.5633 8.91513 41.5633C8.0007 41.5633 7.2594 40.822 7.2594 39.9076Z" fill="#AACC00"/>
<path fill-rule="evenodd" clip-rule="evenodd" d="M15.674 17.2359H2.15625V28.171H15.674V23.4007L17.2924 21.7823L25.525 30.0148L23.1694 32.369L19.8731 35.6544L15.6111 39.9164C15.6526 39.6138 15.674 39.3049 15.674 38.9911V29.7328H2.15625V38.9911C2.15625 42.7239 5.1823 45.75 8.91513 45.75H20.6728V36.181L22.2347 34.6243V45.75H33.1697V32.2322H24.6325L26.8511 30.015L17.2924 20.4564L15.674 22.0749V17.2359ZM14.2513 41.3218C13.3521 43.3776 11.3007 44.8125 8.91513 44.8125C5.70007 44.8125 3.09375 42.2062 3.09375 38.9911V30.6703H14.7365V38.9911C14.7365 39.8208 14.5632 40.6088 14.2513 41.3218ZM3.09375 27.2335V18.1734H14.7365V27.2335H3.09375Z" fill="#AACC00"/>
<path d="M45.75 32.2322H34.7316V45.75H45.75V32.2322Z" fill="#AACC00"/>
</svg>
