<svg width="48" height="48" viewBox="0 0 48 48" fill="none" xmlns="http://www.w3.org/2000/svg">
<path fill-rule="evenodd" clip-rule="evenodd" d="M7.875 1.6875H40.2188V2.625H37.2603V13.1016C37.2603 16.2836 34.9826 19.1398 32.827 21.146C31.7358 22.1615 30.6466 22.9861 29.8311 23.5565C29.5582 23.7474 29.3155 23.9102 29.1129 24.0424C29.3149 24.1716 29.5565 24.3305 29.8279 24.5169C30.6439 25.0775 31.7337 25.8904 32.8256 26.8984C34.9844 28.8914 37.2603 31.7471 37.2603 34.9922V45.4688H40.2188V46.4062H7.875V45.4688H10.8762V34.9922C10.8762 31.6421 13.1492 28.787 15.3133 26.8161C16.4064 25.8206 17.4974 25.0273 18.3143 24.4831C18.582 24.3048 18.8208 24.1528 19.0212 24.029C18.8184 23.8929 18.575 23.7255 18.3012 23.5295C17.4864 22.946 16.3981 22.1057 15.3078 21.0801C14.219 20.056 13.1172 18.8368 12.2852 17.4937C11.454 16.1518 10.8762 14.6605 10.8762 13.1016V2.625H7.875V1.6875ZM11.8137 2.625V13.1016C11.8137 14.4286 12.307 15.7485 13.0822 17C13.8567 18.2502 14.8969 19.4066 15.9501 20.3973C17.0018 21.3865 18.0554 22.2003 18.8471 22.7672C19.2424 23.0504 19.5714 23.2712 19.8007 23.4206C19.9153 23.4954 20.005 23.5522 20.0654 23.5901C20.0957 23.609 20.1186 23.6232 20.1338 23.6325C20.1413 23.6372 20.1469 23.6406 20.1505 23.6428L20.1544 23.6451L20.1552 23.6456L20.1553 23.6457L20.8549 24.0681L20.137 24.4586L20.1368 24.4587L20.1325 24.461L20.122 24.4668L20.116 24.4702C20.1011 24.4785 20.0783 24.4912 20.0483 24.5083C19.9882 24.5424 19.899 24.5939 19.7848 24.662C19.5564 24.7982 19.2284 25.0007 18.834 25.2634C18.0444 25.7894 16.9934 26.554 15.9446 27.5092C13.8247 29.4397 11.8137 32.0573 11.8137 34.9922V45.4688H14.331C15.5828 44.2739 20.786 42.7794 20.786 42.7794L24.0469 40.9688L27.3078 42.7794C27.3078 42.7794 32.3986 44.3418 33.7206 45.4688H36.3228V34.9922C36.3228 32.166 34.3148 29.5491 32.1897 27.5872C31.1396 26.6178 30.0875 25.8327 29.297 25.2897C28.9022 25.0185 28.5738 24.8084 28.345 24.6666C28.2306 24.5958 28.1413 24.5421 28.081 24.5064C28.0509 24.4885 28.028 24.4752 28.013 24.4665C28.0055 24.4621 28 24.4589 27.9964 24.4569L27.9926 24.4547L27.9919 24.4543L27.285 24.0521L27.9873 23.6421L27.9874 23.6421L27.9881 23.6416L27.9919 23.6394L27.9988 23.6353L28.0086 23.6295C28.0237 23.6206 28.0465 23.6068 28.0767 23.5885C28.1371 23.5519 28.2266 23.4968 28.341 23.4243C28.5701 23.2793 28.8987 23.0646 29.2938 22.7883C30.0848 22.235 31.1376 21.4376 32.1883 20.4597C34.3166 18.4789 36.3228 15.8625 36.3228 13.1016V2.625H34.0312V11.6916C34.0312 16.3583 27.3078 20.2863 27.3078 20.2863L24.0469 22.125L20.786 20.2863C20.786 20.2863 14.0625 16.224 14.0625 11.6916V2.625H11.8137Z" fill="#AACC00"/>
</svg>
