<svg width="48" height="48" viewBox="0 0 48 48" fill="none" xmlns="http://www.w3.org/2000/svg">
<path fill-rule="evenodd" clip-rule="evenodd" d="M18.6938 0.314453L19.3503 0.601593C22.3625 1.91892 24.4688 4.92773 24.4688 8.42969C24.4688 11.7622 22.5614 14.6481 19.7812 16.0547V31.9449C22.5614 33.3516 24.4688 36.2375 24.4688 39.5699C24.4688 43.0304 22.4121 46.0094 19.457 47.3505L18.7945 47.6512L18.7945 41.3533L15.9879 39.5242L13.1812 41.3533L13.1812 47.6852L12.5247 47.398C9.51248 46.0807 7.40625 43.0719 7.40625 39.5699C7.40625 36.2375 9.31359 33.3516 12.0938 31.9449V16.0547C9.31359 14.6481 7.40625 11.7622 7.40625 8.42969C7.40625 4.96919 9.46294 1.99023 12.418 0.649124L13.0805 0.348474V6.64636L15.8871 8.47544L18.6938 6.64636V0.314453ZM19.6313 1.78648V7.15441L15.8871 9.59446L12.143 7.15441V1.84378C9.87135 3.1581 8.34375 5.61563 8.34375 8.42969C8.34375 11.4912 10.1519 14.1308 12.7591 15.3353L13.0312 15.4611V32.5386L12.7591 32.6643C10.1519 33.8688 8.34375 36.5084 8.34375 39.5699C8.34375 42.4254 9.9167 44.9138 12.2437 46.2132L12.2437 40.8452L15.9879 38.4052L19.732 40.8452V46.1559C22.0037 44.8415 23.5312 42.384 23.5312 39.5699C23.5312 36.5084 21.7231 33.8688 19.1159 32.6643L18.8438 32.5386V15.4611L19.1159 15.3353C21.7231 14.1308 23.5312 11.4912 23.5312 8.42969C23.5312 5.57419 21.9583 3.0858 19.6313 1.78648Z" fill="#AACC00"/>
<path fill-rule="evenodd" clip-rule="evenodd" d="M33.8329 0.65625H37.9796L38.6501 7.22527L36.375 8.86497L36.375 26.5312H42.2812V27.4688H40.2188V42.7013C40.2188 43.8579 39.7595 44.9671 38.942 45.7851C38.1245 46.603 37.0156 47.0625 35.8594 47.0625C34.7031 47.0625 33.5943 46.603 32.7768 45.7851C31.9592 44.9671 31.5 43.8579 31.5 42.7013V27.4688H29.625V26.5312H35.4375L35.4375 8.86497L33.1624 7.22527L33.8329 0.65625ZM34.6796 1.59375L34.1501 6.78149L35.9062 8.04719L37.6624 6.78149L37.1329 1.59375H34.6796ZM39.2812 42H32.4375V42.7013C32.4375 43.6094 32.7981 44.4802 33.4398 45.1223C34.0816 45.7643 34.9519 46.125 35.8594 46.125C36.7668 46.125 37.6372 45.7643 38.2789 45.1223C38.9207 44.4802 39.2812 43.6094 39.2812 42.7013V42Z" fill="#AACC00"/>
<path fill-rule="evenodd" clip-rule="evenodd" d="M16.4062 18.0938L16.4062 29.9063L15.4688 29.9062L15.4688 18.0938L16.4062 18.0938Z" fill="#AACC00"/>
</svg>
