<svg width="48" height="48" viewBox="0 0 48 48" fill="none" xmlns="http://www.w3.org/2000/svg">
<path fill-rule="evenodd" clip-rule="evenodd" d="M37.1541 24V35.8345H45.8438V33.2869H46.7812V42H10.2963C5.19575 42 1.03125 37.8677 1.03125 32.7656L1.03125 24C1.03125 14.0573 9.11917 6 19.0927 6C29.0662 6 37.1541 14.0573 37.1541 24ZM1.96875 24C1.96875 14.5782 9.63385 6.9375 19.0927 6.9375C28.5515 6.9375 36.2166 14.5782 36.2166 24V41.0625H10.7651V39.3468C10.7651 35.453 7.6069 32.2969 3.71162 32.2969H1.96875L1.96875 24ZM45.8438 41.0625H37.1541V36.772H39.2925V39.3468H40.23V36.772H42.5681V39.3468H43.5056V36.772H45.8438V41.0625Z" fill="#AACC00"/>
<path fill-rule="evenodd" clip-rule="evenodd" d="M19.125 15.2812C14.2558 15.2812 10.3125 19.208 10.3125 24.0469C10.3125 28.8858 14.2558 32.8125 19.125 32.8125C23.9942 32.8125 27.9375 28.8858 27.9375 24.0469C27.9375 19.208 23.9942 15.2812 19.125 15.2812ZM9.375 24.0469C9.375 18.6858 13.7425 14.3438 19.125 14.3438C24.5075 14.3438 28.875 18.6858 28.875 24.0469C28.875 29.408 24.5075 33.75 19.125 33.75C13.7425 33.75 9.375 29.408 9.375 24.0469Z" fill="#AACC00"/>
<path d="M25.2188 24.0938C25.2188 27.4592 22.4905 30.1875 19.125 30.1875C15.7595 30.1875 13.0312 27.4592 13.0312 24.0938C13.0312 20.7283 15.7595 18 19.125 18C22.4905 18 25.2188 20.7283 25.2188 24.0938Z" fill="#AACC00"/>
<path fill-rule="evenodd" clip-rule="evenodd" d="M30.2812 34.2188C29.799 34.2188 29.4375 34.5914 29.4375 35.0156C29.4375 35.4398 29.799 35.8125 30.2812 35.8125C30.7635 35.8125 31.125 35.4398 31.125 35.0156C31.125 34.5914 30.7635 34.2188 30.2812 34.2188ZM28.5 35.0156C28.5 34.0418 29.3137 33.2812 30.2812 33.2812C31.2488 33.2812 32.0625 34.0418 32.0625 35.0156C32.0625 35.9894 31.2488 36.75 30.2812 36.75C29.3137 36.75 28.5 35.9894 28.5 35.0156Z" fill="#AACC00"/>
</svg>
