<svg width="48" height="48" viewBox="0 0 48 48" fill="none" xmlns="http://www.w3.org/2000/svg">
<path d="M31.9863 19.9913L24.0998 12.9375L15.2061 20.7134L13.0312 22.8486L13.7039 23.5394L15.0515 22.2165V33H21.967V26.3338H26.033V33H32.9485V22.2165L34.2961 23.5394L34.9688 22.8486L32.9485 20.8653V16.7694H31.9863V19.9913Z" fill="#AACC00"/>
<path d="M13.1557 34.125L13.1557 35.6607H34.8443V34.125H35.8125V38.1562H34.8443V36.6205H13.1557L13.1557 38.1562H12.1875V34.125H13.1557Z" fill="#AACC00"/>
<path fill-rule="evenodd" clip-rule="evenodd" d="M0.84375 8.3538C0.84375 6.38074 2.44206 4.78125 4.41367 4.78125C6.28784 4.78125 7.82469 6.22654 7.97203 8.06414H40.028C40.1753 6.22654 41.7122 4.78125 43.5863 4.78125C45.5579 4.78125 47.1562 6.38074 47.1562 8.3538V39.9274C47.1562 41.9005 45.5579 43.5 43.5863 43.5H4.41367C2.44206 43.5 0.84375 41.9005 0.84375 39.9274V8.3538ZM46.1914 36.5192V8.3538C46.1914 6.914 45.0251 5.7468 43.5863 5.7468C42.1476 5.7468 40.9813 6.914 40.9813 8.3538V36.5192C41.6326 35.8238 42.5588 35.3893 43.5863 35.3893C44.6139 35.3893 45.5401 35.8238 46.1914 36.5192ZM46.1914 38.9619C46.1914 37.5221 45.0251 36.3549 43.5863 36.3549C42.1476 36.3549 40.9813 37.5221 40.9813 38.9619H40.0164V9.02969H7.98359V38.9619H7.01875C7.01875 37.5221 5.85242 36.3549 4.41367 36.3549C2.97493 36.3549 1.80859 37.5221 1.80859 38.9619V39.9274C1.80859 41.3673 2.97493 42.5344 4.41367 42.5344H43.5863C45.0251 42.5344 46.1914 41.3673 46.1914 39.9274V38.9619ZM4.41367 35.3893C3.3861 35.3893 2.45994 35.8238 1.80859 36.5192V8.3538C1.80859 6.914 2.97493 5.7468 4.41367 5.7468C5.85242 5.7468 7.01875 6.914 7.01875 8.3538V36.5192C6.36741 35.8238 5.44124 35.3893 4.41367 35.3893Z" fill="#AACC00"/>
</svg>
