<svg width="32" height="32" viewBox="0 0 32 32" fill="none" xmlns="http://www.w3.org/2000/svg">
<path d="M26.3036 4.74266C25.6323 4.13188 22.7348 2.30867 16.689 2.28226C16.689 2.28226 9.53024 1.81122 6.05492 4.96353C4.1202 6.87605 3.46858 9.7201 3.39617 13.1913C3.32377 16.6624 2.95457 23.2916 9.29385 25.0553C9.29385 25.0553 9.2694 29.9775 9.26604 30.4102C9.26604 30.7127 9.31399 30.9196 9.4866 30.9624C9.61127 30.9926 9.79683 30.9283 9.95554 30.7703C10.9687 29.7509 14.2139 25.8303 14.2139 25.8303C18.5685 26.115 22.0324 25.2541 22.4049 25.1321C23.2814 24.8508 28.0302 24.4402 28.8363 17.9377C29.672 11.2317 28.5342 6.65518 26.3036 4.74266Z" fill="white"/>
<path d="M27.8824 3.12103C27.0884 2.38733 23.8797 0.0546586 16.7325 0.0229674C16.7325 0.0229674 8.30407 -0.486013 4.19535 3.28813C1.9082 5.57902 1.10363 8.93109 1.01876 13.087C0.933889 17.2428 0.824086 25.0312 8.32085 27.143H8.32804L8.32325 30.3654C8.32325 30.3654 8.2753 31.67 9.1331 31.9361C10.1707 32.2587 10.7797 31.2672 11.7703 30.1983C12.314 29.6115 13.0649 28.7496 13.6307 28.0909C18.7578 28.523 22.7011 27.5353 23.149 27.3893C24.1842 27.0532 30.042 26.3013 30.9948 18.5139C31.9782 10.4868 30.5191 5.40952 27.8824 3.12103ZM28.7513 17.9381C27.9472 24.4406 23.1959 24.8492 22.3199 25.1306C21.9474 25.2506 18.484 26.1135 14.1289 25.8288C14.1289 25.8288 10.8837 29.7494 9.87007 30.7688C9.71184 30.9282 9.5258 30.9925 9.40161 30.9608C9.22708 30.9181 9.17913 30.7111 9.18105 30.4086C9.18392 29.9765 9.20886 25.0538 9.20886 25.0538C2.86718 23.2906 3.23686 16.6618 3.30878 13.1907C3.38071 9.71953 4.03185 6.87596 5.96609 4.96344C9.44141 1.81112 16.6006 2.28217 16.6006 2.28217C22.6464 2.30858 25.5435 4.13179 26.2153 4.74256C28.4458 6.65508 29.5822 11.2316 28.7513 17.9362V17.9381Z" fill="#7360F2"/>
<path d="M19.6766 13.3105C19.573 13.3105 19.4734 13.2706 19.3983 13.1991C19.3232 13.1276 19.2785 13.0299 19.2733 12.9263C19.2048 11.5526 18.5584 10.8798 17.2393 10.8088C17.1343 10.8004 17.0366 10.7513 16.9672 10.6718C16.8977 10.5923 16.8621 10.4888 16.8678 10.3834C16.8735 10.278 16.9201 10.179 16.9976 10.1075C17.0752 10.036 17.1776 9.99763 17.283 10.0007C19.0235 10.0967 19.9911 11.0921 20.0803 12.886C20.083 12.9391 20.0751 12.9922 20.0573 13.0423C20.0394 13.0923 20.0119 13.1384 19.9763 13.1778C19.9407 13.2172 19.8977 13.2492 19.8497 13.272C19.8017 13.2947 19.7497 13.3078 19.6967 13.3105H19.6766Z" fill="#7360F2"/>
<path d="M21.7504 14.0066H21.7408C21.6337 14.004 21.5319 13.959 21.4579 13.8814C21.3839 13.8038 21.3437 13.6999 21.3462 13.5926C21.3774 12.2093 20.9827 11.089 20.1398 10.1681C19.2969 9.24711 18.1485 8.74773 16.6175 8.63537C16.5104 8.62754 16.4108 8.57743 16.3407 8.49607C16.2705 8.41471 16.2354 8.30876 16.2433 8.20153C16.2511 8.09431 16.3011 7.99458 16.3824 7.9243C16.4636 7.85401 16.5694 7.81893 16.6765 7.82676C18.3993 7.95305 19.7648 8.55662 20.7358 9.6202C21.7068 10.6838 22.1896 12.0292 22.1541 13.6095C22.152 13.7153 22.1086 13.8162 22.0331 13.8904C21.9576 13.9646 21.8562 14.0063 21.7504 14.0066Z" fill="#7360F2"/>
<path d="M23.8718 14.8373C23.7652 14.8372 23.6629 14.7949 23.5872 14.7196C23.5115 14.6444 23.4685 14.5422 23.4676 14.4354C23.4489 11.9611 22.7374 10.0711 21.2922 8.65849C19.8643 7.26599 18.0605 6.5515 15.9301 6.53613C15.877 6.53594 15.8245 6.52529 15.7755 6.50477C15.7266 6.48425 15.6821 6.45428 15.6447 6.41656C15.5692 6.34037 15.527 6.23726 15.5273 6.12991C15.5277 6.02255 15.5707 5.91975 15.6468 5.8441C15.7228 5.76846 15.8258 5.72618 15.933 5.72657H15.9363C18.282 5.74385 20.2738 6.53517 21.8566 8.0794C23.4393 9.62363 24.2554 11.7642 24.2765 14.4306C24.2773 14.5379 24.2355 14.6411 24.1603 14.7175C24.0852 14.794 23.9828 14.8374 23.8757 14.8383L23.8718 14.8373Z" fill="#7360F2"/>
<path d="M17.3395 18.3272C17.3395 18.3272 17.9077 18.3752 18.2136 17.9978L18.8101 17.2463C19.0978 16.8737 19.7921 16.636 20.472 17.0154C20.9815 17.3064 21.4761 17.6227 21.9541 17.9632C22.4053 18.2955 23.3292 19.0676 23.3321 19.0676C23.7723 19.4398 23.8739 19.9862 23.5743 20.5624C23.5743 20.5658 23.5719 20.5715 23.5719 20.5744C23.2418 21.1474 22.8228 21.6641 22.3305 22.1052C22.3247 22.1081 22.3247 22.1109 22.3194 22.1138C21.8917 22.4717 21.4716 22.6751 21.0589 22.7241C20.9981 22.7348 20.9364 22.7386 20.8748 22.7356C20.6928 22.7374 20.5117 22.7095 20.3387 22.6531L20.3253 22.6334C19.6895 22.4538 18.6279 22.0043 16.86 21.0277C15.837 20.4691 14.863 19.8249 13.9486 19.1017C13.4902 18.7395 13.053 18.3512 12.6391 17.9387L12.595 17.8946L12.5509 17.8504L12.5068 17.8062C12.4919 17.7918 12.4775 17.7769 12.4627 17.762C12.0508 17.3475 11.6631 16.9097 11.3013 16.4507C10.5793 15.535 9.93596 14.5599 9.37813 13.5356C8.40285 11.7647 7.95405 10.7026 7.77472 10.0649L7.75507 10.0515C7.69885 9.87815 7.67116 9.69684 7.67307 9.51463C7.66972 9.45294 7.67342 9.39108 7.6841 9.33024C7.73557 8.91761 7.93903 8.4965 8.29449 8.06691C8.29736 8.06163 8.30024 8.06163 8.30312 8.05587C8.74343 7.56288 9.25945 7.14339 9.83172 6.81319C9.8346 6.81319 9.84035 6.81031 9.84371 6.81031C10.4191 6.5102 10.9647 6.612 11.3359 7.05039C11.3387 7.05327 12.1083 7.97856 12.4387 8.4304C12.7788 8.90948 13.0946 9.40532 13.3852 9.91605C13.764 10.5964 13.5266 11.2932 13.1546 11.5803L12.4042 12.1777C12.0254 12.484 12.0752 13.053 12.0752 13.053C12.0752 13.053 13.1867 17.2655 17.3395 18.3272Z" fill="#7360F2"/>
</svg>
