<svg width="18" height="18" viewBox="0 0 18 18" fill="none" xmlns="http://www.w3.org/2000/svg">
<path d="M13.1205 11.9567L11.517 13.2332C8.4105 12.0467 6.1185 9.84923 4.767 6.48323L6.0435 4.87973C6.7125 4.21073 6.7125 3.12473 6.0435 2.45573L4.5435 0.502727C3.8745 -0.166273 2.7885 -0.166273 2.1195 0.502727L1.2195 1.28573C0.391501 2.11223 0 3.20123 0 4.28573C0 10.2857 8.1435 18.0002 13.7145 18.0002C14.799 18.0002 15.888 17.6087 16.7145 16.7807L17.4975 15.8807C18.1665 15.2117 18.1665 14.1257 17.4975 13.4567L15.5445 11.9567C14.8755 11.2877 13.7895 11.2877 13.1205 11.9567Z" fill="currentColor"/>
</svg>
