<svg width="36" height="36" viewBox="0 0 36 36" fill="none" xmlns="http://www.w3.org/2000/svg">
<rect width="36" height="36" rx="18" fill="#AACC00"/>
<g clip-path="url(#clip0_255_6461)">
<path d="M25.6561 16.2421C25.453 16.2421 25.2561 16.2683 25.0681 16.317L25.4762 11.7837L25.4767 11.7777C25.6114 10.1382 24.4416 8.66754 22.8135 8.42961C21.4723 8.23359 19.5418 8 17.9608 8C16.388 8 14.4927 8.23125 13.1797 8.42527C11.5554 8.66523 10.3882 10.1355 10.5226 11.7724L10.5232 11.7785L10.9318 16.317C10.7397 16.2672 10.5421 16.2421 10.3437 16.2421C9.05137 16.2421 8 17.2935 8 18.5858C8 21.8612 10.0671 24.0037 11.0096 24.8103L10.3746 27.001C10.2545 27.4154 10.4931 27.8488 10.9075 27.9689C10.9802 27.9899 11.0533 28 11.1254 28C11.4642 28 11.7763 27.7778 11.8754 27.436L12.4932 25.3045H23.5066L24.1245 27.436C24.2236 27.7778 24.5356 28 24.8745 28C24.9465 28 25.0197 27.9899 25.0923 27.9689C25.5068 27.8488 25.7453 27.4154 25.6252 27.001L24.844 24.3057C24.743 23.9573 24.4204 23.7341 24.074 23.743C24.0675 23.7429 24.0611 23.742 24.0546 23.742H12.1702C11.913 23.5341 11.4182 23.0965 10.9308 22.4572C10.0229 21.2662 9.56246 19.9637 9.56246 18.5858C9.56246 18.155 9.91293 17.8045 10.3437 17.8045C10.7745 17.8045 11.125 18.155 11.125 18.5858C11.125 18.6166 11.1268 18.6475 11.1304 18.6781L11.1839 19.1273C11.1911 19.3712 11.2503 19.6108 11.3576 19.8299C11.4648 20.049 11.6177 20.2427 11.8059 20.398C12.202 20.7258 12.7189 20.8586 13.2242 20.7624C15.0919 20.4067 16.6987 20.2264 17.9999 20.2264C19.3012 20.2264 20.9079 20.4067 22.7756 20.7624C23.2809 20.8588 23.7978 20.7258 24.1939 20.398C24.5761 20.0818 24.8009 19.6211 24.8159 19.1274L24.8694 18.6782C24.873 18.6475 24.8749 18.6167 24.8749 18.5858C24.8749 18.155 25.2254 17.8046 25.6561 17.8046C26.0869 17.8046 26.4374 18.155 26.4374 18.5858C26.4374 19.5429 26.2104 20.4753 25.7627 21.3571C25.5674 21.7419 25.7209 22.2121 26.1057 22.4074C26.4905 22.6028 26.9606 22.4491 27.1559 22.0645C27.7159 20.9614 27.9999 19.791 27.9999 18.5858C27.9998 17.2935 26.9484 16.2421 25.6561 16.2421ZM23.9197 11.6471L23.2574 19.0042C23.2572 19.0065 23.2573 19.0087 23.2571 19.0111C23.2553 19.0321 23.2543 19.0531 23.2542 19.0742C23.2542 19.1348 23.2235 19.173 23.1978 19.1943C23.1718 19.2158 23.1281 19.2392 23.0679 19.2275C21.1041 18.8536 19.399 18.6639 17.9999 18.6639C16.6008 18.6639 14.8957 18.8536 12.9319 19.2275C12.8716 19.2389 12.828 19.2158 12.802 19.1943C12.7762 19.173 12.7455 19.1348 12.7455 19.0742C12.7455 19.0531 12.7444 19.0321 12.7427 19.0111C12.7425 19.0087 12.7426 19.0065 12.7424 19.0042L12.0796 11.6418C12.0139 10.8244 12.597 10.0907 13.4081 9.97094C14.6693 9.78465 16.4829 9.5625 17.9608 9.5625C19.4479 9.5625 21.2976 9.78719 22.5875 9.9757C23.4009 10.0945 23.9855 10.8284 23.9197 11.6471Z" fill="white"/>
</g>
<defs>
<clipPath id="clip0_255_6461">
<rect width="20" height="20" fill="white" transform="translate(8 8)"/>
</clipPath>
</defs>
</svg>
