<svg width="24" height="24" viewBox="0 0 24 24" fill="none" xmlns="http://www.w3.org/2000/svg">
<path d="M0 11.52C0 6.08942 0 3.37413 1.68706 1.68706C3.37413 0 6.08942 0 11.52 0L12.48 0C17.9106 0 20.6259 0 22.3129 1.68706C24 3.37413 24 6.08942 24 11.52V12.48C24 17.9106 24 20.6259 22.3129 22.3129C20.6259 24 17.9106 24 12.48 24H11.52C6.08942 24 3.37413 24 1.68706 22.3129C0 20.6259 0 17.9106 0 12.48L0 11.52Z" fill="#0077FF"/>
<path d="M12.7708 17.2898C7.30075 17.2898 4.18078 13.5398 4.05078 7.2998H6.79077C6.88077 11.8798 8.90073 13.8198 10.5007 14.2198V7.2998H13.0808V11.2498C14.6608 11.0798 16.3206 9.2798 16.8806 7.2998H19.4607C19.0307 9.7398 17.2307 11.5398 15.9507 12.2798C17.2307 12.8798 19.2808 14.4498 20.0608 17.2898H17.2207C16.6107 15.3898 15.0908 13.9198 13.0808 13.7198L13.0808 17.2898H12.7708Z" fill="white"/>
</svg>
