<svg width="48" height="48" viewBox="0 0 48 48" fill="none" xmlns="http://www.w3.org/2000/svg">
<g clip-path="url(#clip0_255_7301)">
<path fill-rule="evenodd" clip-rule="evenodd" d="M36.4248 28.6183C35.5124 28.6183 34.7862 29.2893 34.7862 30.1018C34.7862 30.9144 35.5124 31.5854 36.4248 31.5854C36.9898 31.5854 37.4858 31.3271 37.7804 30.9356L38.6314 31.4817C38.149 32.123 37.3394 32.5425 36.4248 32.5425C34.955 32.5425 33.75 31.4566 33.75 30.1018C33.75 28.7471 34.955 27.6611 36.4248 27.6611C37.3394 27.6611 38.149 28.0806 38.6314 28.7219L37.7804 29.2681C37.4858 28.8765 36.9898 28.6183 36.4248 28.6183Z" fill="#AACC00"/>
<path fill-rule="evenodd" clip-rule="evenodd" d="M32.0039 3.54038L33.6801 4.70036L33.1163 5.51502L31.7776 4.58855L29.6306 4.97932L28.7041 6.31807L27.8895 5.7543L29.0495 4.07811L32.0039 3.54038Z" fill="#AACC00"/>
<path fill-rule="evenodd" clip-rule="evenodd" d="M41.9245 12.9873L40.7645 14.6635L39.9498 14.0997L40.8763 12.761L40.4855 10.614L39.1468 9.68753L39.7105 8.87288L41.3867 10.0329L41.9245 12.9873Z" fill="#AACC00"/>
<path d="M23.5712 39.8511H22.8515V36.7397H23.5712C24.4001 36.7397 25.0855 37.4287 25.0855 38.2954C25.0855 39.1622 24.4001 39.8511 23.5712 39.8511Z" fill="#AACC00"/>
<path fill-rule="evenodd" clip-rule="evenodd" d="M29.6434 0L45.1389 10.7848L40.9352 16.894C41.6377 17.5604 42.0761 18.5052 42.0761 19.553V25.0844L42.1743 25.0844C43.7473 25.0844 45.0225 26.3669 45.0225 27.9488V32.0974C45.0225 33.6794 43.7473 34.9618 42.1743 34.9618H42.0761V40.4932C42.0761 42.5116 40.4492 44.1478 38.4423 44.1478L30.1978 44.1478C28.7911 46.4583 26.2579 48 23.3667 48C20.394 48 17.7998 46.3702 16.4193 43.9505L16.4193 44.1478L8.09478 44.1478C6.08787 44.1478 4.46094 42.5116 4.46094 40.4932L4.46094 19.553C4.46094 18.1007 5.30326 16.8462 6.52339 16.2568L6.52339 1.2798L25.1837 1.2798L25.1837 6.48133L29.6434 0ZM38.4423 43.1601H30.7092C31.1349 42.1766 31.371 41.091 31.371 39.9499C31.371 35.5039 27.7874 31.8998 23.3667 31.8998C18.9461 31.8998 15.3624 35.5039 15.3625 39.9499C15.3625 41.091 15.5985 42.1766 16.0242 43.1601H8.09478C6.63028 43.1601 5.44306 41.9661 5.44306 40.4932L5.44306 19.553C5.44306 18.0801 6.63027 16.8861 8.09478 16.8861H38.4423C39.9068 16.8861 41.094 18.0801 41.094 19.553V25.0844L35.7906 25.0844C33.0785 25.0844 30.88 27.2955 30.88 30.0231C30.88 32.7507 33.0785 34.9618 35.7906 34.9618H41.094V40.4932C41.094 41.9661 39.9068 43.1601 38.4423 43.1601ZM43.7724 11.0349L40.1365 16.3191C39.6306 16.0505 39.0541 15.8984 38.4423 15.8984L34.4591 15.8984C34.4971 15.74 34.5284 15.5434 34.5424 15.2763C34.5848 14.4629 34.4807 13.7219 34.2359 13.0954C33.9912 12.4689 33.6107 11.9692 33.116 11.625C32.6214 11.2807 32.0224 11.0986 31.3532 11.089C30.684 11.0794 29.9577 11.2425 29.2158 11.569C28.4739 11.8955 27.7309 12.379 27.0292 12.9919C26.4163 13.5273 25.2746 14.9978 24.6259 15.8984H19.8982L29.8921 1.3743L43.7724 11.0349ZM24.2015 7.90863L18.7038 15.8984H13.9875L13.9875 2.26754L24.2015 2.26754V7.90863ZM10.3537 2.26754V15.8984L8.09478 15.8984C7.89414 15.8984 7.6973 15.9147 7.50551 15.9462L7.50551 2.26754L10.3537 2.26754ZM31.8621 30.0231C31.8621 27.841 33.6209 26.0721 35.7906 26.0721H42.1743C43.2049 26.0721 44.0404 26.9124 44.0404 27.9488V32.0974C44.0404 33.1338 43.2049 33.9741 42.1743 33.9741H35.7906C33.6209 33.9741 31.8621 32.2052 31.8621 30.0231ZM23.5712 35.752H21.8694V41.9007H20.9605V42.8884H21.8694V44.4441H22.8515V42.8884H23.7604V41.9007H22.8515V40.8389H23.5712C24.9574 40.8389 26.0676 39.6926 26.0676 38.2954C26.0676 36.8983 24.9574 35.752 23.5712 35.752Z" fill="#AACC00"/>
</g>
<defs>
<clipPath id="clip0_255_7301">
<rect width="48" height="48" fill="white"/>
</clipPath>
</defs>
</svg>
