<svg width="32" height="32" viewBox="0 0 32 32" fill="none" xmlns="http://www.w3.org/2000/svg">
<g clip-path="url(#clip0_178_5474)">
<path fill-rule="evenodd" clip-rule="evenodd" d="M27.1864 4.64667C24.1953 1.65171 20.2171 0.00151951 15.9784 0C7.24429 0 0.135996 7.10754 0.132957 15.844C0.131438 18.6368 0.861565 21.3628 2.24812 23.7652L0 31.9767L8.39988 29.7733C10.7141 31.0361 13.32 31.7009 15.9716 31.7017H15.9784C24.7111 31.7017 31.8202 24.5933 31.8232 15.8569C31.8247 11.6228 30.1783 7.6424 27.1864 4.64743V4.64667ZM15.9784 29.0258H15.9731C13.6103 29.0251 11.2923 28.3898 9.26983 27.1902L8.78888 26.9046L3.80411 28.2121L5.13444 23.3519L4.82142 22.8535C3.50324 20.7566 2.80654 18.3329 2.80806 15.8448C2.8111 8.58374 8.71897 2.67586 15.9838 2.67586C19.5014 2.67738 22.808 4.04875 25.2946 6.53847C27.7813 9.02745 29.1496 12.337 29.1481 15.8554C29.145 23.1172 23.2372 29.0251 15.9784 29.0251V29.0258ZM23.2022 19.1626C22.8064 18.9643 20.8599 18.007 20.4967 17.8748C20.1336 17.7426 19.87 17.6766 19.6063 18.0731C19.3427 18.4697 18.5837 19.3617 18.3527 19.6253C18.1217 19.8897 17.8907 19.9224 17.4949 19.724C17.0991 19.5257 15.8235 19.1079 14.3108 17.7593C13.134 16.7093 12.3392 15.4132 12.1083 15.0166C11.8773 14.62 12.084 14.4057 12.2815 14.209C12.4592 14.0312 12.6773 13.7463 12.8756 13.5153C13.0739 13.2843 13.1393 13.1188 13.2714 12.8551C13.4037 12.5907 13.3375 12.3598 13.2388 12.1614C13.14 11.9631 12.3484 10.0143 12.0179 9.22192C11.6964 8.45002 11.3698 8.55487 11.1274 8.54196C10.8964 8.53055 10.6328 8.52828 10.3684 8.52828C10.104 8.52828 9.67549 8.62705 9.31235 9.02365C8.94922 9.4202 7.92655 10.3783 7.92655 12.3263C7.92655 14.2743 9.34506 16.1578 9.54334 16.4222C9.74161 16.6866 12.3354 20.6852 16.3067 22.4007C17.2511 22.8087 17.9888 23.0526 18.5639 23.2349C19.5121 23.5365 20.3752 23.494 21.0574 23.3922C21.818 23.2782 23.3998 22.4341 23.7295 21.5095C24.0592 20.5848 24.0592 19.7916 23.9605 19.6268C23.8617 19.4619 23.5973 19.3624 23.2015 19.1641L23.2022 19.1626Z" fill="#25D366"/>
<path fill-rule="evenodd" clip-rule="evenodd" d="M23.2014 19.1626C22.8056 18.9644 20.8592 18.007 20.4959 17.8749C20.1328 17.7426 19.8692 17.6766 19.6055 18.0731C19.3419 18.4698 18.5829 19.3617 18.3519 19.6253C18.121 19.8897 17.89 19.9224 17.4941 19.7241C17.0984 19.5258 15.8227 19.1079 14.31 17.7593C13.1332 16.7093 12.3384 15.4133 12.1075 15.0166C11.8765 14.6201 12.0832 14.4058 12.2807 14.209C12.4585 14.0312 12.6765 13.7463 12.8748 13.5154C13.0732 13.2844 13.1385 13.1188 13.2707 12.8551C13.4029 12.5907 13.3368 12.3598 13.238 12.1615C13.1392 11.9632 12.3476 10.0144 12.0171 9.22196C11.6957 8.45006 11.369 8.55491 11.1267 8.542C10.8957 8.53059 10.6321 8.52832 10.3677 8.52832C10.1033 8.52832 9.67472 8.62709 9.31158 9.02368C8.94845 9.42024 7.92578 10.3783 7.92578 12.3263C7.92578 14.2743 9.34429 16.1578 9.54257 16.4222C9.74084 16.6866 12.3346 20.6852 16.3059 22.4007C17.2503 22.8087 17.988 23.0526 18.5631 23.235C19.5114 23.5366 20.3744 23.494 21.0566 23.3922C21.8172 23.2783 23.399 22.4342 23.7287 21.5095C24.0585 20.5849 24.0585 19.7917 23.9597 19.6268C23.861 19.462 23.5966 19.3624 23.2007 19.1641L23.2014 19.1626Z" fill="#25D366"/>
<path fill-rule="evenodd" clip-rule="evenodd" d="M15.979 29.0257H15.9737C13.6108 29.025 11.2928 28.3898 9.27037 27.1901L8.78941 26.9045L3.80464 28.212L5.13498 23.3518L4.82195 22.8534C3.50377 20.7565 2.80708 18.3328 2.8086 15.8447C2.81164 8.58366 8.71951 2.67578 15.9844 2.67578C19.502 2.6773 22.8085 4.04867 25.2951 6.53839C27.7818 9.02737 29.1501 12.3369 29.1486 15.8553C29.1456 23.1171 23.2378 29.025 15.979 29.025V29.0257ZM23.2027 19.1625C22.8069 18.9642 20.8605 18.0069 20.4972 17.8747C20.1341 17.7425 19.8705 17.6765 19.6068 18.073C19.3432 18.4697 18.5842 19.3616 18.3532 19.6252C18.1223 19.8896 17.8913 19.9223 17.4954 19.7239C17.0997 19.5257 15.824 19.1078 14.3113 17.7592C13.1345 16.7092 12.3397 15.4131 12.1088 15.0165C11.8778 14.6199 12.0845 14.4057 12.282 14.2089C12.4598 14.0311 12.6778 13.7462 12.8761 13.5152C13.0745 13.2842 13.1398 13.1187 13.272 12.855C13.4042 12.5906 13.3381 12.3597 13.2393 12.1613C13.1405 11.9631 12.3489 10.0142 12.0184 9.22184C11.697 8.44994 11.3703 8.55479 11.128 8.54188C10.897 8.53047 10.6334 8.5282 10.369 8.5282C10.1046 8.5282 9.67603 8.62697 9.31289 9.02356C8.94975 9.42012 7.92708 10.3782 7.92708 12.3262C7.92708 14.2742 9.3456 16.1577 9.54387 16.4221C9.74215 16.6865 12.3359 20.6851 16.3072 22.4006C17.2516 22.8086 17.9893 23.0525 18.5644 23.2348C19.5127 23.5364 20.3757 23.4939 21.058 23.3921C21.8185 23.2781 23.4003 22.434 23.73 21.5094C24.0598 20.5848 24.0598 19.7916 23.961 19.6267C23.8623 19.4618 23.5979 19.3623 23.202 19.164L23.2027 19.1625Z" fill="white"/>
</g>
<defs>
<clipPath id="clip0_178_5474">
<rect width="32" height="32" fill="white"/>
</clipPath>
</defs>
</svg>
