<svg width="24" height="24" viewBox="0 0 24 24" fill="none" xmlns="http://www.w3.org/2000/svg">
<g clip-path="url(#clip0_169_10195)">
<path d="M9.38211 9.38153C11.1978 7.5658 11.5289 4.84509 11.5892 0.00537109C5.2758 0.191214 0.191707 5.27531 0.00585938 11.5887C4.84558 11.5284 7.56629 11.1974 9.38211 9.38153Z" fill="black"/>
<path d="M0.00526372 11.5886C0.00176276 11.7076 0 11.8268 0 11.9467C0 12.0664 0.0017627 12.1858 0.00526357 12.3047C4.845 12.3651 7.5657 12.6961 9.38151 14.5118C11.1972 16.3276 11.5283 19.0484 11.5886 23.8881C11.7076 23.8916 11.8269 23.8933 11.9467 23.8933C12.0664 23.8933 12.1858 23.8916 12.3047 23.8881C12.3651 19.0484 12.6961 16.3276 14.5118 14.5118C16.3276 12.6961 19.0484 12.3651 23.8881 12.3047C23.8916 12.1858 23.8933 12.0664 23.8933 11.9467C23.8933 11.8268 23.8916 11.7076 23.8881 11.5886C19.0484 11.5283 16.3276 11.1972 14.5118 9.38142C12.6961 7.56568 12.3651 4.84498 12.3047 0.0052634C12.1858 0.00176265 12.0664 0 11.9467 0C11.8269 0 11.7076 0.00176268 11.5886 0.00526349C11.5283 4.84499 11.1972 7.56569 9.38151 9.38142C7.56569 11.1972 4.84499 11.5283 0.00526372 11.5886Z" fill="white"/>
<path d="M12.3047 0.00537109C12.365 4.84509 12.6961 7.56579 14.5118 9.38153C16.3276 11.1974 19.0483 11.5284 23.8881 11.5887C23.7022 5.2753 18.6181 0.191213 12.3047 0.00537109Z" fill="black"/>
<path fill-rule="evenodd" clip-rule="evenodd" d="M11.5886 0V0.00526349C11.7076 0.00176268 11.8269 0 11.9467 0C12.0664 0 12.1858 0.00176265 12.3047 0.0052634V0H11.9467H11.5886ZM0 11.5886H0.00526372C0.00176276 11.7076 0 11.8268 0 11.9467V11.5886ZM0.00526357 12.3047C0.0017627 12.1858 0 12.0664 0 11.9467V12.3047H0.00526357ZM11.5886 23.8881L11.5887 23.8933H11.9467H12.3047V23.8881C12.1858 23.8916 12.0664 23.8933 11.9467 23.8933C11.8269 23.8933 11.7076 23.8916 11.5886 23.8881ZM23.8933 12.3046L23.8881 12.3047C23.8916 12.1858 23.8933 12.0664 23.8933 11.9467V12.3046ZM23.8933 11.5886V11.9467C23.8933 11.8268 23.8916 11.7076 23.8881 11.5886H23.8933Z" fill="white"/>
<path d="M0.00585938 12.3047C0.191704 18.6181 5.2758 23.7022 11.5892 23.8881C11.5289 19.0483 11.1978 16.3276 9.38211 14.5118C7.56629 12.6961 4.84559 12.365 0.00585938 12.3047Z" fill="black"/>
<path d="M14.5118 14.5118C12.6961 16.3276 12.365 19.0483 12.3047 23.8881C18.6181 23.7022 23.7022 18.6181 23.8881 12.3047C19.0483 12.365 16.3276 12.6961 14.5118 14.5118Z" fill="black"/>
</g>
<defs>
<clipPath id="clip0_169_10195">
<rect width="24" height="24" fill="white"/>
</clipPath>
</defs>
</svg>
