<svg width="48" height="48" viewBox="0 0 48 48" fill="none" xmlns="http://www.w3.org/2000/svg">
<path fill-rule="evenodd" clip-rule="evenodd" d="M23.9531 1.81348L25.5382 4.05254L28.1575 4.86808L26.5178 7.06745L26.5395 8.83069L32.25 15.9602V28.781H34.125V31.5935H37.0547V34.031H41.9766V31.5935H45.8438V45.7498H2.25V31.5935H6.11719V34.031H11.0391V31.5935H13.9688V28.781H15.8438V15.9602L21.3639 9.06838L21.3885 7.06744L19.7488 4.86808L22.3681 4.05254L23.9531 1.81348ZM23.9531 8.93076L22.1998 9.52444L17.2885 15.656H30.8052L25.9638 9.61152L23.9531 8.93076ZM16.7812 28.781V16.5935H31.3125V28.781H16.7812ZM14.9062 32.531H33.1875V44.8123H28.3125V39.2341C28.3125 36.8783 26.4027 34.9685 24.0469 34.9685C21.691 34.9685 19.7812 36.8783 19.7812 39.2341V44.8123H14.9062V32.531ZM33.1875 29.7185V31.5935H14.9062V29.7185H33.1875ZM44.9062 37.9685H34.125V44.8123H44.9062V37.9685ZM13.9688 37.9685H3.1875V44.8123H13.9688V37.9685Z" fill="#AACC00"/>
<path fill-rule="evenodd" clip-rule="evenodd" d="M19.2188 22.7344C19.2188 20.0679 21.3804 17.9062 24.0469 17.9062C26.7134 17.9062 28.875 20.0679 28.875 22.7344C28.875 25.4009 26.7134 27.5625 24.0469 27.5625C21.3804 27.5625 19.2188 25.4009 19.2188 22.7344ZM24.4219 20.5312H23.4844V22.7879L24.9342 24.2377L25.5971 23.5748L24.4219 22.3996V20.5312Z" fill="#AACC00"/>
</svg>
