<svg width="28" height="24" viewBox="0 0 28 24" fill="none" xmlns="http://www.w3.org/2000/svg">
<g clip-path="url(#clip0_169_10175)">
<path d="M27.4008 5.12941C27.0782 3.90588 26.1333 2.94118 24.935 2.61176C22.7457 2 13.9885 2 13.9885 2C13.9885 2 5.23128 2 3.04198 2.58824C1.86667 2.91765 0.898766 3.90588 0.576132 5.12941C0 7.36471 0 12 0 12C0 12 0 16.6588 0.576132 18.8706C0.898766 20.0941 1.84362 21.0588 3.04198 21.3882C5.25432 22 13.9885 22 13.9885 22C13.9885 22 22.7457 22 24.935 21.4118C26.1333 21.0824 27.0782 20.1176 27.4008 18.8941C27.977 16.6588 27.977 12.0235 27.977 12.0235C27.977 12.0235 28 7.36471 27.4008 5.12941Z" fill="#FF0000"/>
<path d="M11.1992 16.2825L18.4815 12.0001L11.1992 7.71777V16.2825Z" fill="white"/>
</g>
<defs>
<clipPath id="clip0_169_10175">
<rect width="28" height="20" fill="white" transform="translate(0 2)"/>
</clipPath>
</defs>
</svg>
