<svg width="48" height="48" viewBox="0 0 48 48" fill="none" xmlns="http://www.w3.org/2000/svg">
<g clip-path="url(#clip0_255_180)">
<path d="M10.6657 10.1432C14.4732 5.83217 20.0272 3.11677 26.2129 3.11677C37.6898 3.11677 46.9937 12.4666 46.9937 24.0002C46.9937 35.5338 37.6898 44.8836 26.2129 44.8836C14.736 44.8836 5.4321 35.5338 5.4321 24.0002V22.2046L9.1574 25.9483L9.86898 25.2332L4.93449 20.2743L0 25.2332L0.711585 25.9483L4.42577 22.2157V24.0002C4.42577 36.0923 14.1802 45.8949 26.2129 45.8949C38.2456 45.8949 48 36.0923 48 24.0002C48 11.9081 38.2456 2.10547 26.2129 2.10547C19.7275 2.10547 13.9034 4.95378 9.91302 9.47185L10.6657 10.1432Z" fill="#AACC00"/>
<path d="M22.5735 18.5123C21.431 18.5123 20.5218 19.449 20.5218 20.583C20.5218 21.717 21.431 22.6538 22.5735 22.6538C23.7161 22.6538 24.6253 21.717 24.6253 20.583C24.6253 19.449 23.7161 18.5123 22.5735 18.5123Z" fill="#AACC00"/>
<path d="M30.3803 25.3457C29.2471 25.3457 28.3285 26.296 28.3285 27.4683C28.3285 28.6405 29.2471 29.5908 30.3803 29.5908C31.5134 29.5908 32.432 28.6405 32.432 27.4683C32.432 26.296 31.5134 25.3457 30.3803 25.3457Z" fill="#AACC00"/>
<path fill-rule="evenodd" clip-rule="evenodd" d="M26.5269 36.6313C33.2706 36.6313 38.7375 30.976 38.7375 23.9997C38.7375 17.0235 33.2706 11.3682 26.5269 11.3682C19.7832 11.3682 14.3164 17.0235 14.3164 23.9997C14.3164 30.976 19.7832 36.6313 26.5269 36.6313ZM19.5209 20.583C19.5209 18.8579 20.897 17.4769 22.5735 17.4769C24.2501 17.4769 25.6262 18.8579 25.6262 20.583C25.6262 22.3081 24.2501 23.6891 22.5735 23.6891C20.897 23.6891 19.5209 22.3081 19.5209 20.583ZM27.3276 27.4683C27.3276 25.7242 28.6943 24.3104 30.3803 24.3104C32.0662 24.3104 33.4329 25.7242 33.4329 27.4683C33.4329 29.2123 32.0662 30.6261 30.3803 30.6261C28.6943 30.6261 27.3276 29.2123 27.3276 27.4683ZM31.781 17.7289L20.171 29.5322L20.8725 30.2706L32.4825 18.4673L31.781 17.7289Z" fill="#AACC00"/>
</g>
<defs>
<clipPath id="clip0_255_180">
<rect width="48" height="48" fill="white"/>
</clipPath>
</defs>
</svg>
