<svg width="48" height="48" viewBox="0 0 48 48" fill="none" xmlns="http://www.w3.org/2000/svg">
<circle cx="15.75" cy="35.7188" r="2.90625" fill="#AACC00"/>
<circle cx="36.6562" cy="35.7188" r="2.90625" fill="#AACC00"/>
<path fill-rule="evenodd" clip-rule="evenodd" d="M4.78125 12.75C4.78125 10.8343 6.33426 9.28125 8.25 9.28125H31.7736V12.289H39.1298L42.9731 21.8949L47.5312 23.8804V36.5625H41.6399C41.2196 38.9077 39.1692 40.6875 36.7031 40.6875C34.237 40.6875 32.1866 38.9077 31.7663 36.5625H20.7337C20.3134 38.9077 18.263 40.6875 15.7969 40.6875C13.3308 40.6875 11.2804 38.9077 10.8601 36.5625H8.25C6.33426 36.5625 4.78125 35.0095 4.78125 33.0938V22.5938H12.5789V21.6562H4.78125V18.6774H15.6948V17.7399H4.78125V14.8125H18.1875V13.875H4.78125V12.75ZM46.5938 35.625H41.7185C41.6934 32.8765 39.4575 30.6562 36.7031 30.6562C34.2508 30.6562 32.2096 32.4162 31.7736 34.7419V22.7165H42.5117L46.5938 24.4946V35.625ZM31.7736 21.779H41.917L38.4952 13.2265H31.7736V21.779ZM11.7188 35.6719C11.7188 33.4196 13.5446 31.5938 15.7969 31.5938C18.0492 31.5938 19.875 33.4196 19.875 35.6719C19.875 37.9242 18.0492 39.75 15.7969 39.75C13.5446 39.75 11.7188 37.9242 11.7188 35.6719ZM36.7031 31.5938C34.4508 31.5938 32.625 33.4196 32.625 35.6719C32.625 37.9242 34.4508 39.75 36.7031 39.75C38.9554 39.75 40.7812 37.9242 40.7812 35.6719C40.7812 33.4196 38.9554 31.5938 36.7031 31.5938Z" fill="#AACC00"/>
<path fill-rule="evenodd" clip-rule="evenodd" d="M4.78125 14.8125H2.86771V13.875H4.78125V14.8125ZM4.78125 18.6774H0.375V17.7399H4.78125V18.6774ZM4.78125 22.5938H2.45226V21.6562H4.78125V22.5938Z" fill="#AACC00"/>
</svg>
