<svg width="16" height="17" viewBox="0 0 16 17" fill="none" xmlns="http://www.w3.org/2000/svg">
<path fill-rule="evenodd" clip-rule="evenodd" d="M14.6475 7.84422L2.10504 0.602656C1.99033 0.535883 1.86006 0.500478 1.72733 0.5H1.72514C1.59233 0.500527 1.462 0.53595 1.3472 0.602719C1.23159 0.668652 1.13561 0.764161 1.0691 0.879444C1.0026 0.994727 0.967965 1.12563 0.968764 1.25872V15.7417C0.968238 15.8749 1.00291 16.0058 1.06927 16.1213C1.13563 16.2368 1.23131 16.3327 1.34664 16.3992C1.46197 16.4658 1.59285 16.5008 1.72602 16.5005C1.8592 16.5003 1.98994 16.4648 2.10501 16.3978L14.6475 9.15619C14.7627 9.08971 14.8583 8.99409 14.9248 8.87894C14.9913 8.76379 15.0263 8.63317 15.0263 8.5002C15.0263 8.36724 14.9913 8.23661 14.9248 8.12146C14.8583 8.00631 14.7627 7.9107 14.6475 7.84422Z" fill="currentColor"/>
</svg>
