<svg width="24" height="24" viewBox="0 0 24 24" fill="none" xmlns="http://www.w3.org/2000/svg">
<mask id="mask0_169_10188" style="mask-type:luminance" maskUnits="userSpaceOnUse" x="0" y="0" width="24" height="24">
<path d="M24 0H0V24H24V0Z" fill="white"/>
</mask>
<g mask="url(#mask0_169_10188)">
<path d="M0.0722656 11.4839C0.0722656 6.08392 0.0722656 3.37192 1.74027 1.69192C3.43227 0.0239259 6.13227 0.0239258 11.5443 0.0239258H12.5043C17.9043 0.0239258 20.6163 0.0239259 22.2963 1.69192C23.9643 3.35992 23.9643 6.08392 23.9643 11.4839V12.4439C23.9643 17.8439 23.9643 20.5559 22.2963 22.2359C20.6283 23.9039 17.9043 23.9039 12.5043 23.9039H11.5443C6.14427 23.9039 3.43227 23.9039 1.75227 22.2359C0.0722657 20.5559 0.0722656 17.8559 0.0722656 12.4439V11.4839Z" fill="#FF7700"/>
<path d="M12.0128 11.904C13.1768 11.904 14.2328 11.424 14.9888 10.668C15.7448 9.91198 16.2248 8.85598 16.2248 7.69198C16.2248 6.52798 15.7448 5.47198 14.9888 4.71598C14.2328 3.95998 13.1768 3.47998 12.0128 3.47998C10.8488 3.47998 9.79278 3.95998 9.03678 4.71598C8.28078 5.45998 7.80078 6.51598 7.80078 7.69198C7.80078 8.86798 8.28078 9.91198 9.03678 10.668C9.79278 11.424 10.8608 11.904 12.0128 11.904ZM10.6688 6.32398C11.0168 5.97598 11.4968 5.75998 12.0248 5.75998C12.5648 5.75998 13.0328 5.97598 13.3808 6.32398C13.7288 6.67198 13.9448 7.15198 13.9448 7.67998C13.9448 8.21998 13.7288 8.68798 13.3808 9.03598C13.0328 9.38398 12.5528 9.59998 12.0248 9.59998C11.4848 9.59998 11.0168 9.38398 10.6688 9.03598C10.3208 8.68798 10.1048 8.20798 10.1048 7.67998C10.1048 7.15198 10.3328 6.67198 10.6688 6.32398Z" fill="white"/>
<path d="M17.6996 13.6081L16.4636 11.9161C16.3916 11.8201 16.2476 11.8081 16.1636 11.8921C14.9996 12.8881 13.5596 13.5361 12.0116 13.5361C10.4636 13.5361 9.03557 12.8881 7.85957 11.8921C7.77557 11.8201 7.63157 11.8321 7.55957 11.9161L6.32357 13.6081C6.26357 13.6921 6.27557 13.8001 6.34757 13.8721C7.39157 14.7121 8.60357 15.2881 9.86357 15.5881L7.24757 20.1961C7.17557 20.3281 7.27157 20.4961 7.41557 20.4961H9.97157C10.0556 20.4961 10.1276 20.4481 10.1516 20.3641L11.9756 16.2841L13.7996 20.3641C13.8236 20.4361 13.8956 20.4961 13.9796 20.4961H16.5356C16.6916 20.4961 16.7756 20.3401 16.7036 20.1961L14.0876 15.5881C15.3476 15.2881 16.5596 14.7361 17.6036 13.8721C17.7596 13.8001 17.7716 13.6921 17.6996 13.6081Z" fill="white"/>
</g>
</svg>
