<svg width="36" height="36" viewBox="0 0 36 36" fill="none" xmlns="http://www.w3.org/2000/svg">
<rect width="36" height="36" rx="18" fill="#AACC00"/>
<g clip-path="url(#clip0_255_6467)">
<path fill-rule="evenodd" clip-rule="evenodd" d="M6.23438 17.25C6.23438 11.5286 10.8724 6.89062 16.5937 6.89062H16.6078C22.3182 6.89062 26.9531 11.4864 26.9531 17.2031C26.9531 17.5914 26.6383 17.9062 26.2499 17.9062C25.8616 17.9062 25.5468 17.5914 25.5468 17.2031C25.5468 12.2693 21.5478 8.29688 16.6078 8.29688H16.5937C11.649 8.29688 7.64062 12.3053 7.64062 17.25C7.64062 22.0911 11.5651 26.0156 16.4062 26.0156H25.5468V21.8437C25.5468 21.4554 25.8616 21.1406 26.2499 21.1406C26.6383 21.1406 26.9531 21.4554 26.9531 21.8437V26.0156H29.0624C29.4508 26.0156 29.7656 26.3304 29.7656 26.7187V29.0624C29.7656 29.4508 29.4508 29.7656 29.0624 29.7656C28.6741 29.7656 28.3593 29.4508 28.3593 29.0624V27.4218H16.4062C10.7884 27.4218 6.23438 22.8678 6.23438 17.25ZM16.5703 12.0469C13.7355 12.0469 11.4375 14.3449 11.4375 17.1797C11.4375 20.0144 13.7355 22.3125 16.5703 22.3125C17.3511 22.3125 18.0647 22.1386 18.731 21.824C19.0822 21.6582 19.5012 21.8084 19.667 22.1596C19.8328 22.5107 19.6826 22.9298 19.3314 23.0956C18.4879 23.4939 17.57 23.7187 16.5703 23.7187C12.9589 23.7187 10.0312 20.7911 10.0312 17.1797C10.0312 13.5682 12.9589 10.6406 16.5703 10.6406C20.1817 10.6406 23.1093 13.5682 23.1093 17.1797C23.1093 18.0006 22.9577 18.7879 22.6803 19.5137C22.5416 19.8764 22.1352 20.0581 21.7724 19.9194C21.4097 19.7808 21.228 19.3743 21.3667 19.0116C21.5838 18.4436 21.7031 17.8263 21.7031 17.1797C21.7031 14.3449 19.4051 12.0469 16.5703 12.0469Z" fill="white"/>
<path d="M23.9062 23.5078C23.9062 24.0127 23.497 24.4219 22.9922 24.4219C22.4873 24.4219 22.0781 24.0127 22.0781 23.5078C22.0781 23.003 22.4873 22.5938 22.9922 22.5938C23.497 22.5938 23.9062 23.003 23.9062 23.5078Z" fill="white"/>
</g>
<defs>
<clipPath id="clip0_255_6467">
<rect width="24" height="24" fill="white" transform="translate(6 6)"/>
</clipPath>
</defs>
</svg>
