<svg width="220" height="54" viewBox="0 0 220 54" fill="none" xmlns="http://www.w3.org/2000/svg">
<path d="M2.76562 27.9286V0.628582H9.87332V22.1566H21.7195V27.9286H2.76562Z" fill="currentColor"/>
<path d="M25.6805 27.9286V0.628582H32.7882V27.9286H25.6805Z" fill="currentColor"/>
<path d="M38.7051 27.9286V0.628582H58.2513V6.01058H45.8128V12.3286H57.0667V17.3986H45.8128V27.9286H38.7051Z" fill="currentColor"/>
<path d="M62.1892 27.9286V0.628582H82.3277V6.01058H69.2969V11.3536H81.143V16.4236H69.2969V22.5466H82.3277V27.9286H62.1892Z" fill="currentColor"/>
<path d="M106.009 28.4356C104.087 28.4356 102.403 28.2536 100.955 27.8896C99.507 27.4996 98.296 26.9406 97.322 26.2126C96.3743 25.4846 95.6504 24.6136 95.1502 23.5996C94.6763 22.5596 94.4131 21.4026 94.3605 20.1286H101.468C101.573 20.6226 101.731 21.0516 101.942 21.4156C102.179 21.7796 102.482 22.0786 102.85 22.3126C103.219 22.5466 103.653 22.7156 104.153 22.8196C104.68 22.9236 105.298 22.9756 106.009 22.9756C107.536 22.9756 108.668 22.7676 109.405 22.3516C110.168 21.9356 110.55 21.3116 110.55 20.4796C110.55 19.9336 110.405 19.4916 110.116 19.1536C109.826 18.7896 109.405 18.4776 108.852 18.2176C108.299 17.9316 107.615 17.6846 106.799 17.4766C105.983 17.2686 105.035 17.0476 103.956 16.8136C102.587 16.5016 101.35 16.1246 100.244 15.6826C99.1647 15.2406 98.2434 14.6946 97.4799 14.0446C96.7429 13.3686 96.1637 12.5626 95.7425 11.6266C95.3476 10.6646 95.1502 9.52058 95.1502 8.19458C95.1502 6.92058 95.4003 5.78958 95.9005 4.80158C96.4006 3.78758 97.1246 2.94258 98.0723 2.26658C99.0199 1.56458 100.165 1.03158 101.508 0.667582C102.85 0.303582 104.351 0.121582 106.009 0.121582C107.826 0.121582 109.405 0.303582 110.748 0.667582C112.09 1.00558 113.209 1.51258 114.104 2.18858C115.025 2.86458 115.723 3.69658 116.197 4.68458C116.697 5.67258 116.987 6.79058 117.066 8.03858H109.958C109.8 7.20658 109.418 6.59558 108.813 6.20558C108.207 5.78958 107.273 5.58158 106.009 5.58158C104.588 5.58158 103.6 5.80258 103.048 6.24458C102.521 6.68658 102.258 7.25858 102.258 7.96058C102.258 8.42858 102.39 8.83158 102.653 9.16958C102.916 9.50758 103.298 9.80658 103.798 10.0666C104.298 10.3006 104.917 10.5086 105.654 10.6906C106.391 10.8726 107.233 11.0676 108.181 11.2756C109.603 11.5616 110.892 11.9126 112.051 12.3286C113.235 12.7186 114.236 13.2516 115.052 13.9276C115.894 14.5776 116.539 15.3836 116.987 16.3456C117.434 17.2816 117.658 18.4386 117.658 19.8166C117.658 21.1686 117.395 22.3776 116.868 23.4436C116.342 24.5096 115.578 25.4196 114.578 26.1736C113.578 26.9016 112.353 27.4606 110.906 27.8506C109.458 28.2406 107.826 28.4356 106.009 28.4356Z" fill="currentColor"/>
<path d="M127.743 27.9286V6.40058H119.253V0.628582H143.34V6.40058H134.85V27.9286H127.743Z" fill="currentColor"/>
<path d="M155.616 27.9286V17.7106L145.35 0.628582H153.563L159.328 10.7686L164.778 0.628582H172.201L162.724 17.7106V27.9286H155.616Z" fill="currentColor"/>
<path d="M175.368 27.9286V0.628582H182.475V22.1566H194.322V27.9286H175.368Z" fill="currentColor"/>
<path d="M197.888 27.9286V0.628582H218.026V6.01058H204.996V11.3536H216.842V16.4236H204.996V22.5466H218.026V27.9286H197.888Z" fill="currentColor"/>
<rect y="43.2686" width="64.5128" height="3.71429" rx="1.85714" fill="#AACC00"/>
<path d="M77.6758 52.8144V41.0029H79.526V43.2315C79.7818 42.5035 80.218 41.9166 80.8348 41.4709C81.4515 41.0104 82.166 40.7801 82.9783 40.7801C84.0163 40.7801 84.8136 41.0029 85.3701 41.4486C85.9267 41.8795 86.3103 42.4366 86.5209 43.1201C86.912 42.3921 87.4084 41.8201 88.0101 41.4041C88.6269 40.9881 89.364 40.7801 90.2214 40.7801C91.4549 40.7801 92.4177 41.1515 93.1096 41.8944C93.8016 42.6224 94.1476 43.7738 94.1476 45.3486V52.8144H92.1619V45.7944C92.1619 44.6206 91.9589 43.7886 91.5527 43.2984C91.1466 42.8081 90.5148 42.5629 89.6573 42.5629C89.2963 42.5629 88.9503 42.6372 88.6194 42.7858C88.2884 42.9344 87.9951 43.1498 87.7394 43.4321C87.4836 43.7144 87.2806 44.0561 87.1301 44.4572C86.9797 44.8584 86.9045 45.3041 86.9045 45.7944V52.8144H84.9189V45.7944C84.9189 44.6206 84.7083 43.7886 84.2871 43.2984C83.8659 42.8081 83.2416 42.5629 82.4142 42.5629C82.0532 42.5629 81.7072 42.6372 81.3763 42.7858C81.0454 42.9344 80.752 43.1498 80.4963 43.4321C80.2406 43.7144 80.0375 44.0561 79.8871 44.4572C79.7366 44.8584 79.6614 45.3041 79.6614 45.7944V52.8144H77.6758Z" fill="currentColor"/>
<path d="M102.604 53.0372C101.837 53.0372 101.107 52.9184 100.415 52.6806C99.7231 52.4429 99.1139 52.0789 98.5874 51.5886C98.0609 51.0835 97.6397 50.4521 97.3238 49.6944C97.0079 48.9366 96.85 48.0452 96.85 47.0201V46.5744C96.85 45.5938 97.0004 44.7469 97.3013 44.0338C97.6021 43.3058 98.0007 42.7041 98.4972 42.2286C99.0086 41.7384 99.5953 41.3744 100.257 41.1366C100.934 40.8989 101.641 40.7801 102.378 40.7801C104.153 40.7801 105.515 41.2555 106.462 42.2064C107.425 43.1424 107.906 44.4869 107.906 46.2401V47.4881H98.8356C98.8356 48.1715 98.9484 48.7584 99.1741 49.2486C99.3997 49.7241 99.6931 50.1104 100.054 50.4075C100.415 50.7046 100.814 50.9201 101.25 51.0538C101.701 51.1875 102.153 51.2544 102.604 51.2544C103.506 51.2544 104.198 51.1058 104.68 50.8086C105.176 50.5115 105.53 50.1029 105.74 49.5829H107.681C107.56 50.1475 107.342 50.6452 107.026 51.0761C106.726 51.5069 106.349 51.8709 105.898 52.1681C105.462 52.4504 104.958 52.6658 104.386 52.8144C103.83 52.9629 103.236 53.0372 102.604 53.0372ZM98.8356 45.8835H106.034C106.019 45.2744 105.913 44.7618 105.718 44.3458C105.537 43.9149 105.289 43.5732 104.973 43.3206C104.657 43.0532 104.281 42.8601 103.845 42.7412C103.424 42.6224 102.972 42.5629 102.491 42.5629C102.025 42.5629 101.573 42.6298 101.137 42.7635C100.701 42.8824 100.31 43.0829 99.9638 43.3652C99.6329 43.6326 99.3621 43.9744 99.1515 44.3904C98.9409 44.8064 98.8356 45.3041 98.8356 45.8835Z" fill="currentColor"/>
<path d="M116.821 53.0372C115.798 53.0372 114.911 52.8144 114.158 52.3686C113.406 51.9081 112.88 51.3138 112.579 50.5858V52.8144H110.729V37.2144H112.714V43.1201C113.06 42.3921 113.587 41.8201 114.294 41.4041C115.016 40.9881 115.858 40.7801 116.821 40.7801C118.31 40.7801 119.506 41.2704 120.409 42.2509C121.326 43.2166 121.785 44.6578 121.785 46.5744V47.0201C121.785 48.0155 121.665 48.8921 121.424 49.6498C121.183 50.4075 120.845 51.0389 120.409 51.5441C119.972 52.0344 119.446 52.4058 118.829 52.6584C118.227 52.9109 117.558 53.0372 116.821 53.0372ZM116.37 51.2989C116.851 51.2989 117.302 51.2098 117.724 51.0315C118.145 50.8384 118.506 50.5635 118.807 50.2069C119.123 49.8504 119.363 49.4046 119.529 48.8698C119.709 48.3349 119.799 47.7184 119.799 47.0201V46.5744C119.799 45.9206 119.709 45.3486 119.529 44.8584C119.363 44.3532 119.123 43.9298 118.807 43.5881C118.506 43.2315 118.145 42.9641 117.724 42.7858C117.302 42.6075 116.851 42.5184 116.37 42.5184C115.828 42.5184 115.332 42.6075 114.88 42.7858C114.429 42.9492 114.046 43.1869 113.73 43.4989C113.414 43.7961 113.166 44.1526 112.985 44.5686C112.805 44.9846 112.714 45.4304 112.714 45.9058V47.6886C112.714 48.2235 112.805 48.7138 112.985 49.1595C113.166 49.6052 113.414 49.9841 113.73 50.2961C114.046 50.6081 114.429 50.8532 114.88 51.0315C115.332 51.2098 115.828 51.2989 116.37 51.2989Z" fill="currentColor"/>
<path d="M129.575 53.0372C128.808 53.0372 128.078 52.9184 127.386 52.6806C126.694 52.4429 126.085 52.0789 125.559 51.5886C125.032 51.0835 124.611 50.4521 124.295 49.6944C123.979 48.9366 123.821 48.0452 123.821 47.0201V46.5744C123.821 45.5938 123.972 44.7469 124.272 44.0338C124.573 43.3058 124.972 42.7041 125.468 42.2286C125.98 41.7384 126.566 41.3744 127.228 41.1366C127.905 40.8989 128.612 40.7801 129.349 40.7801C131.124 40.7801 132.486 41.2555 133.433 42.2064C134.396 43.1424 134.878 44.4869 134.878 46.2401V47.4881H125.807C125.807 48.1715 125.92 48.7584 126.145 49.2486C126.371 49.7241 126.664 50.1104 127.025 50.4075C127.386 50.7046 127.785 50.9201 128.221 51.0538C128.672 51.1875 129.124 51.2544 129.575 51.2544C130.478 51.2544 131.17 51.1058 131.651 50.8086C132.147 50.5115 132.501 50.1029 132.711 49.5829H134.652C134.532 50.1475 134.313 50.6452 133.998 51.0761C133.697 51.5069 133.321 51.8709 132.869 52.1681C132.433 52.4504 131.929 52.6658 131.358 52.8144C130.801 52.9629 130.207 53.0372 129.575 53.0372ZM125.807 45.8835H133.005C132.99 45.2744 132.884 44.7618 132.689 44.3458C132.508 43.9149 132.26 43.5732 131.944 43.3206C131.628 43.0532 131.252 42.8601 130.816 42.7412C130.395 42.6224 129.944 42.5629 129.462 42.5629C128.996 42.5629 128.545 42.6298 128.108 42.7635C127.672 42.8824 127.281 43.0829 126.935 43.3652C126.604 43.6326 126.333 43.9744 126.123 44.3904C125.912 44.8064 125.807 45.3041 125.807 45.8835Z" fill="currentColor"/>
<path d="M141.31 52.9258C140.678 52.9258 140.144 52.8589 139.708 52.7252C139.272 52.5766 138.911 52.3464 138.625 52.0344C138.339 51.7224 138.129 51.3286 137.993 50.8532C137.873 50.3778 137.813 49.8058 137.813 49.1372V37.2144H139.798V49.1372C139.798 49.5235 139.828 49.8429 139.889 50.0955C139.949 50.3481 140.046 50.5561 140.182 50.7195C140.317 50.8681 140.498 50.9795 140.723 51.0538C140.949 51.1132 141.22 51.1429 141.536 51.1429C141.701 51.1429 141.844 51.1429 141.964 51.1429C142.085 51.1281 142.205 51.1132 142.325 51.0984V52.8366C142.265 52.8515 142.19 52.8664 142.1 52.8812C142.01 52.8961 141.912 52.9035 141.806 52.9035C141.716 52.9184 141.626 52.9258 141.536 52.9258C141.445 52.9258 141.37 52.9258 141.31 52.9258Z" fill="currentColor"/>
<rect x="155.488" y="43.2686" width="64.5128" height="3.71429" rx="1.85714" fill="#AACC00"/>
</svg>
