<svg width="512" height="512" viewBox="0 0 512 512" fill="none" xmlns="http://www.w3.org/2000/svg">
<g opacity="0.2" clip-path="url(#clip0_1304_2)">
<path d="M512 256C512 114.615 397.385 0 256 0C114.615 0 0 114.615 0 256C0 397.385 114.615 512 256 512C397.385 512 512 397.385 512 256Z" fill="#AACC00"/>
<path d="M202.622 196.301H309.347C326.646 196.301 340.669 210.365 340.669 227.712V268.431C313.72 268.431 291.338 288.037 286.933 313.802H225.037C220.631 288.037 198.249 268.431 171.301 268.431V227.712C171.301 210.365 185.324 196.301 202.622 196.301Z" fill="white"/>
<path d="M139.977 364.991V323.109C139.977 305.762 154 291.698 171.298 291.698C188.596 291.698 202.62 305.762 202.62 323.109V337.07H309.345V323.109C309.345 305.762 323.368 291.698 340.666 291.698C357.964 291.698 371.988 305.762 371.988 323.109V364.991C371.988 382.339 357.964 396.402 340.666 396.402H312.823L330.413 426.956C333.617 432.521 331.716 439.636 326.167 442.848C320.619 446.061 313.524 444.155 310.321 438.59L286.033 396.402H226.515L202.227 438.59C199.024 444.155 191.929 446.061 186.381 442.848C180.832 439.636 178.931 432.521 182.135 426.956L199.725 396.402H171.298C154 396.402 139.977 382.339 139.977 364.991Z" fill="white"/>
<path fill-rule="evenodd" clip-rule="evenodd" d="M308.718 64.0029C308.718 57.1754 314.244 51.6406 321.061 51.6406H367.965C374.781 51.6406 380.308 57.1754 380.308 64.0029V155.38L467.542 227.924C472.786 232.285 473.508 240.079 469.153 245.332C464.798 250.585 457.017 251.308 451.772 246.946L360.08 170.695C357.255 168.347 355.622 164.861 355.622 161.184V76.3652H333.404V122.179C333.404 126.972 330.638 131.333 326.306 133.37C321.975 135.407 316.858 134.752 313.176 131.691L256 84.1428L60.2281 246.946C54.9834 251.308 47.2017 250.585 42.847 245.332C38.4924 240.079 39.2139 232.285 44.4585 227.924L248.115 58.5636C252.687 54.7621 259.313 54.7621 263.885 58.5636L308.718 95.8469V64.0029Z" fill="white"/>
</g>
<defs>
<clipPath id="clip0_1304_2">
<rect width="512" height="512" fill="white"/>
</clipPath>
</defs>
</svg>
